<?xml version="1.0" encoding="UTF-8" standalone="no"?>
<!-- Created with Inkscape (http://www.inkscape.org/) -->

<svg
   width="44"
   height="44"
   viewBox="0 0 11.641666 11.641666"
   version="1.1"
   id="svg168"
   xmlns="http://www.w3.org/2000/svg"
   xmlns:svg="http://www.w3.org/2000/svg">
  <defs
     id="defs165">
    <clipPath
       id="clip0_95_809">
      <rect
         width="44"
         height="44"
         fill="#ffffff"
         transform="translate(82)"
         id="rect60"
         x="0"
         y="0" />
    </clipPath>
  </defs>
  <g
     id="layer1">
    <g
       clip-path="url(#clip0_95_809)"
       id="g27"
       transform="matrix(0.26458333,0,0,0.26458333,-21.695833,3.314625e-5)">
      <path
         d="m 116.623,15.5959 c -1.279,0 -2.498,0.2577 -3.61,0.7232 l -2.658,-5.1581 h 3.715 c 0.403,0 0.731,0.3279 0.731,0.731 0,0.4031 -0.328,0.7311 -0.731,0.7311 h -0.793 c -0.417,0 -0.755,0.3382 -0.755,0.7554 0,0.4172 0.338,0.7554 0.755,0.7554 h 0.793 c 1.236,0 2.242,-1.0057 2.242,-2.2419 0,-1.2361 -1.006,-2.24185 -2.242,-2.24185 h -4.955 c -0.263,0 -0.507,0.13728 -0.645,0.36215 -0.137,0.225 -0.147,0.5052 -0.026,0.7394 l 1.322,2.5651 H 98.8633 L 97.7634,11.161 h 1.7394 c 0.4173,0 0.7552,-0.3382 0.7552,-0.7554 0,-0.41723 -0.3379,-0.75545 -0.7552,-0.75545 H 94.548 c -0.4173,0 -0.7555,0.33822 -0.7555,0.75545 0,0.4172 0.3382,0.7554 0.7555,0.7554 h 1.5193 l 1.4681,2.8774 -1.7256,2.6735 c -1.3208,-0.7116 -2.8304,-1.116 -4.4329,-1.116 -5.1704,0 -9.3769,4.2064 -9.3769,9.3768 0,5.1704 4.2065,9.3769 9.3769,9.3769 4.9161,0 8.9601,-3.803 9.3461,-8.6215 h 2.217 l -0.861,2.802 h -0.496 c -0.417,0 -0.755,0.3382 -0.755,0.7554 0,0.4172 0.338,0.7554 0.755,0.7554 h 2.72 c 0.417,0 0.755,-0.3382 0.755,-0.7554 0,-0.4172 -0.338,-0.7554 -0.755,-0.7554 h -0.644 l 0.994,-3.2347 6.286,-9.7023 0.732,1.4205 c -2.654,1.6577 -4.425,4.6054 -4.425,7.9591 0,5.1704 4.207,9.3769 9.377,9.3769 5.171,0 9.377,-4.2065 9.377,-9.3769 0,-5.1704 -4.206,-9.3768 -9.377,-9.3768 z m -18.2937,-0.0015 4.3997,8.6229 h -2.006 c -0.218,-2.718 -1.5995,-5.1125 -3.6453,-6.6839 z m 0.8766,8.6229 h -6.4422 l 3.4911,-5.4087 c 1.6326,1.2948 2.7417,3.2218 2.9511,5.4087 z m -7.829,8.6215 c -4.3374,0 -7.8661,-3.5286 -7.8661,-7.8661 0,-4.3373 3.5287,-7.866 7.8661,-7.866 1.3007,0 2.5276,0.3193 3.6096,0.8806 l -4.2444,6.5757 c -0.1499,0.2323 -0.1609,0.5282 -0.0286,0.771 0.1323,0.2429 0.3868,0.394 0.6634,0.394 h 7.829 c -0.3815,3.9843 -3.7465,7.1108 -7.829,7.1108 z M 104.04,23.4632 99.6342,14.8275 h 10.0008 z m 12.583,9.3756 c -4.337,0 -7.866,-3.5287 -7.866,-7.8661 0,-2.7697 1.44,-5.2078 3.61,-6.6097 l 3.585,6.9558 c 0.134,0.2602 0.398,0.4094 0.672,0.4094 0.116,0 0.234,-0.0271 0.345,-0.0841 0.371,-0.191 0.517,-0.6466 0.326,-1.0176 l -3.586,-6.9578 c 0.902,-0.3612 1.885,-0.5621 2.914,-0.5621 4.338,0 7.866,3.5287 7.866,7.866 0,4.3376 -3.528,7.8662 -7.866,7.8662 z"
         fill="#ffffff"
         id="path25" />
    </g>
  </g>
</svg>
