<svg width="32" height="32" viewBox="0 0 32 32" fill="none" xmlns="http://www.w3.org/2000/svg">
<path d="M6.85712 5.74941C6.85973 5.12024 6.68916 4.5025 6.36409 3.96381C6.03902 3.42512 5.57199 2.98626 5.01415 2.6953C4.4563 2.40434 3.82914 2.27248 3.20136 2.31418C2.57357 2.35588 1.96937 2.56951 1.4549 2.9317C0.940432 3.29388 0.535546 3.79065 0.284577 4.36759C0.0336079 4.94454 -0.0537658 5.57942 0.0320237 6.20271C0.117813 6.82601 0.373458 7.41368 0.770963 7.90137C1.16847 8.38906 1.6925 8.75797 2.28569 8.9677V28.6066C2.28569 28.9097 2.4061 29.2004 2.62042 29.4147C2.83475 29.629 3.12544 29.7494 3.42855 29.7494C3.73165 29.7494 4.02234 29.629 4.23667 29.4147C4.451 29.2004 4.5714 28.9097 4.5714 28.6066V8.9677C5.23759 8.73217 5.81473 8.29657 6.22388 7.72049C6.63303 7.14441 6.85419 6.45599 6.85712 5.74941Z" fill="white"/>
<path d="M26.2857 2.32104H14.8571C13.3421 2.32286 11.8897 2.92548 10.8185 3.99673C9.74726 5.06797 9.14464 6.52037 9.14282 8.03534V22.8925C9.14575 23.5991 9.36692 24.2875 9.77607 24.8636C10.1852 25.4397 10.7624 25.8753 11.4285 26.1108V27.4639C11.4285 28.0701 11.6694 28.6515 12.098 29.0802C12.5267 29.5088 13.108 29.7496 13.7143 29.7496H16C16.6062 29.7496 17.1876 29.5088 17.6162 29.0802C18.0449 28.6515 18.2857 28.0701 18.2857 27.4639V26.3211H22.8571V27.4639C22.8571 28.0701 23.0979 28.6515 23.5266 29.0802C23.9552 29.5088 24.5366 29.7496 25.1428 29.7496H27.4286C28.0348 29.7496 28.6161 29.5088 29.0448 29.0802C29.4735 28.6515 29.7143 28.0701 29.7143 27.4639V26.1108C30.3805 25.8753 30.9576 25.4397 31.3667 24.8636C31.7759 24.2875 31.9971 23.5991 32 22.8925V8.03534C31.9982 6.52037 31.3955 5.06797 30.3243 3.99673C29.2531 2.92548 27.8007 2.32286 26.2857 2.32104ZM13.7143 21.7496C13.7143 21.5236 13.7813 21.3026 13.9069 21.1147C14.0324 20.9268 14.2109 20.7803 14.4198 20.6938C14.6286 20.6073 14.8584 20.5846 15.0801 20.6287C15.3018 20.6728 15.5054 20.7817 15.6652 20.9415C15.8251 21.1013 15.9339 21.305 15.978 21.5267C16.0221 21.7484 15.9995 21.9782 15.913 22.187C15.8265 22.3958 15.68 22.5743 15.4921 22.6999C15.3041 22.8255 15.0831 22.8925 14.8571 22.8925C14.554 22.8925 14.2633 22.7721 14.049 22.5578C13.8347 22.3434 13.7143 22.0527 13.7143 21.7496ZM25.1428 21.7496C25.1428 21.5236 25.2099 21.3026 25.3354 21.1147C25.461 20.9268 25.6395 20.7803 25.8483 20.6938C26.0572 20.6073 26.287 20.5846 26.5087 20.6287C26.7303 20.6728 26.934 20.7817 27.0938 20.9415C27.2536 21.1013 27.3625 21.305 27.4066 21.5267C27.4507 21.7484 27.4281 21.9782 27.3416 22.187C27.2551 22.3958 27.1086 22.5743 26.9206 22.6999C26.7327 22.8255 26.5117 22.8925 26.2857 22.8925C25.9826 22.8925 25.6919 22.7721 25.4776 22.5578C25.2632 22.3434 25.1428 22.0527 25.1428 21.7496ZM29.7143 16.0353C29.7143 16.3384 29.5939 16.6291 29.3795 16.8435C29.1652 17.0578 28.8745 17.1782 28.5714 17.1782H12.5714C12.2683 17.1782 11.9776 17.0578 11.7633 16.8435C11.5489 16.6291 11.4285 16.3384 11.4285 16.0353V9.17819C11.4285 8.57198 11.6694 7.9906 12.098 7.56195C12.5267 7.13329 13.108 6.89248 13.7143 6.89248H27.4286C28.0348 6.89248 28.6161 7.13329 29.0448 7.56195C29.4735 7.9906 29.7143 8.57198 29.7143 9.17819V16.0353Z" fill="white"/>
</svg>
