<?xml version="1.0" encoding="UTF-8" standalone="no"?>
<!-- Created with Inkscape (http://www.inkscape.org/) -->

<svg
   width="33.000065"
   height="44"
   viewBox="0 0 8.7312667 11.641666"
   version="1.1"
   id="svg168"
   sodipodi:docname="coffee.svg"
   inkscape:version="1.1 (c4e8f9e, 2021-05-24)"
   xmlns:inkscape="http://www.inkscape.org/namespaces/inkscape"
   xmlns:sodipodi="http://sodipodi.sourceforge.net/DTD/sodipodi-0.dtd"
   xmlns="http://www.w3.org/2000/svg"
   xmlns:svg="http://www.w3.org/2000/svg">
  <sodipodi:namedview
     id="namedview1719"
     pagecolor="#ffffff"
     bordercolor="#666666"
     borderopacity="1.0"
     inkscape:pageshadow="2"
     inkscape:pageopacity="0.0"
     inkscape:pagecheckerboard="true"
     showgrid="false"
     fit-margin-top="0"
     fit-margin-left="0"
     fit-margin-right="0"
     fit-margin-bottom="0"
     inkscape:zoom="14.795455"
     inkscape:cx="17.099846"
     inkscape:cy="23.149002"
     inkscape:window-width="1296"
     inkscape:window-height="847"
     inkscape:window-x="0"
     inkscape:window-y="25"
     inkscape:window-maximized="0"
     inkscape:current-layer="svg168" />
  <defs
     id="defs165">
    <clipPath
       id="clip0_95_809">
      <rect
         width="44"
         height="44"
         fill="#ffffff"
         transform="translate(82)"
         id="rect60"
         x="0"
         y="0" />
    </clipPath>
    <mask
       id="mask0_95_809"
       maskUnits="userSpaceOnUse"
       x="164"
       y="0"
       width="44"
       height="44">
      <path
         d="m 164,3.8147e-6 h 44 V 44 h -44 z"
         fill="#ffffff"
         id="path29" />
    </mask>
    <mask
       id="mask0_95_809-3"
       maskUnits="userSpaceOnUse"
       x="164"
       y="0"
       width="44"
       height="44">
      <path
         d="m 164,3.8147e-6 h 44 V 44 h -44 z"
         fill="#ffffff"
         id="path29-9" />
    </mask>
  </defs>
  <g
     id="layer1"
     transform="translate(-1.4551999)">
    <path
       d="M 10.131954,4.1930422 C 10.002308,3.487372 9.6564978,2.923836 9.1320937,2.5634074 8.2364791,1.9480395 6.9752104,2.0450833 5.8210979,2.8094831 4.7069375,2.0746611 3.4274125,1.9328259 2.5095729,2.5636905 1.9851688,2.9241271 1.6393584,3.4875308 1.5097125,4.1931745 1.3200063,5.2262931 1.63195,6.4571876 2.3439438,7.4856495 c 0.8757708,1.2651053 2.1751395,1.9938733 3.3334853,1.9938733 0.045244,0 0.090223,-0.0022 0.1352021,-0.0045 v 0.0011 c 0.052388,0.003 0.104775,0.0045 0.1576917,0.0045 1.1879791,0 2.4780875,-0.768614 3.3273999,-1.9954076 C 10.009717,6.4568966 10.32166,5.2260285 10.131954,4.1930422 Z M 8.6524041,2.6177766 C 8.637852,2.7772039 8.6349416,2.9310327 8.6330895,3.0801783 8.6267395,3.5730177 8.6206541,4.0383668 8.1713916,4.6875485 8.0348666,4.8847424 7.891727,5.0482549 7.7377395,5.1840391 7.5959229,4.8302383 7.4107145,4.484031 7.1850249,4.1580908 6.8609104,3.6902016 6.478852,3.2963958 6.067425,2.9849812 6.9630395,2.4235433 7.9105124,2.2919925 8.6524041,2.6177766 Z M 3.857625,2.4431225 c 1.0641541,0 2.2740937,0.6883321 3.095625,1.8752529 0.6701895,0.9683485 0.9651999,2.1200797 0.7887229,3.0810728 -0.115623,0.6304492 -0.4206875,1.1313056 -0.8821209,1.4483556 -0.015875,0.01085 -0.032279,0.02029 -0.048154,0.03056 -0.00582,-0.105621 -0.009,-0.210978 -0.010319,-0.319563 C 6.7945,8.0452432 6.7873562,7.5141187 6.2888812,6.793817 5.7901416,6.0736476 5.2945771,5.8784381 4.8154166,5.6898431 4.3547771,5.5085506 3.9200667,5.3372858 3.470275,4.6875485 3.0210125,4.0385256 3.0149271,3.5730177 3.0085771,3.0801783 3.006725,2.931456 3.0038146,2.7782093 2.9892625,2.6193244 3.2586083,2.5011536 3.5517667,2.4431225 3.857625,2.4431225 Z M 2.5754542,7.3253649 C 1.905,6.3570428 1.6102542,5.2051793 1.7867313,4.244292 1.9026188,3.6138693 2.2076833,3.1130131 2.6691167,2.7960952 c 0.015346,-0.010716 0.03175,-0.019711 0.047625,-0.030004 0.00582,0.1050661 0.00873,0.2098675 0.010054,0.3178969 0.00661,0.5133975 0.013494,1.0442575 0.5119688,1.7640035 0.498475,0.7201429 0.9940396,0.9153525 1.4734645,1.103974 0.460375,0.181266 0.8950855,0.3525308 1.3451417,1.0022681 0.4495271,0.649605 0.4556125,1.1152452 0.4622271,1.6082171 0.00212,0.149304 0.00503,0.302974 0.019579,0.462412 -0.221456,0.09718 -0.459581,0.153379 -0.7077602,0.169995 -7.937e-4,0 -0.00159,0 -0.00238,0 -1.1006667,0.07255 -2.390775,-0.623385 -3.2535812,-1.8694929 z M 9.0662124,7.3249416 C 8.5740874,8.0359564 7.9282395,8.5817388 7.2485249,8.8966728 7.6443416,8.5401988 7.9097187,8.0468043 8.0192562,7.4503012 8.133027,6.8304353 8.0650291,6.1394231 7.8396041,5.4636243 8.0433333,5.2996885 8.2293354,5.0986845 8.4031666,4.8478331 8.901377,4.1279547 8.9082562,3.5970948 8.9151353,3.083856 c 0.00132,-0.1080294 0.00423,-0.2128308 0.010054,-0.3177646 0.01561,0.010134 0.032015,0.018865 0.047625,0.029448 C 9.4342478,3.1125898 9.7393124,3.613446 9.8549353,4.2438687 10.031412,5.2048883 9.736402,6.3567518 9.0662124,7.3249416 Z"
       fill="#ffffff"
       id="path58"
       style="stroke-width:0.264583" />
  </g>
</svg>
