<?xml version="1.0" encoding="UTF-8" standalone="no"?>
<svg
   width="28"
   height="28"
   viewBox="0 0 28 28"
   fill="none"
   version="1.1"
   id="svg11"
   xmlns="http://www.w3.org/2000/svg"
   xmlns:svg="http://www.w3.org/2000/svg">
  <defs
     id="defs15" />
  <g
     id="Group"
     transform="translate(-63.60335,2.5242038)">
    <path
       id="Vector"
       fill-rule="evenodd"
       clip-rule="evenodd"
       d="m 69.6533,21.2304 2.1969,-3.7942 -5.1844,3.7942 z m 7.9489,0 c 0.9986,-0.8438 0.5455,-1.4007 0,-2.1728 -0.6589,-0.9309 -1.4556,-2.1741 0,-4.614 l -7.2741,6.7868 z m -4.1536,-4.4158 4.1548,-4.6338 4.0883,3.9405 2.5294,-1.6679 6.1928,6.7756 L 84.008,11.0502 78.4284,2.1843 c -0.3886,-0.61751 -1.2638,-0.61747 -1.6524,8e-5 l -5.5785,8.86582 -6.4047,10.1788 7.0586,-5.9838 z m 10.6703,-0.0717 -5.7828,4.4875 h 6.0389 c -0.0862,-1.4963 2.0011,-2.2993 -0.2561,-4.4875 z"
       fill="#ffffff" />
  </g>
</svg>
