<?xml version="1.0" encoding="UTF-8" standalone="no"?>
<!-- Created with Inkscape (http://www.inkscape.org/) -->

<svg
   width="24.750069"
   height="44"
   viewBox="0 0 6.5484553 11.641666"
   version="1.1"
   id="svg168"
   sodipodi:docname="hiking.svg"
   inkscape:version="1.1 (c4e8f9e, 2021-05-24)"
   xmlns:inkscape="http://www.inkscape.org/namespaces/inkscape"
   xmlns:sodipodi="http://sodipodi.sourceforge.net/DTD/sodipodi-0.dtd"
   xmlns="http://www.w3.org/2000/svg"
   xmlns:svg="http://www.w3.org/2000/svg">
  <sodipodi:namedview
     id="namedview1743"
     pagecolor="#ffffff"
     bordercolor="#666666"
     borderopacity="1.0"
     inkscape:pageshadow="2"
     inkscape:pageopacity="0.0"
     inkscape:pagecheckerboard="true"
     showgrid="false"
     fit-margin-top="0"
     fit-margin-left="0"
     fit-margin-right="0"
     fit-margin-bottom="0"
     inkscape:zoom="14.795455"
     inkscape:cx="8.7864823"
     inkscape:cy="17.877112"
     inkscape:window-width="1296"
     inkscape:window-height="847"
     inkscape:window-x="0"
     inkscape:window-y="25"
     inkscape:window-maximized="0"
     inkscape:current-layer="svg168" />
  <defs
     id="defs165" />
  <g
     id="layer1"
     transform="translate(-2.5466057)">
    <path
       d="m 3.3308594,10.535239 c -0.100965,-8.47e-4 -0.200528,-0.02363 -0.291835,-0.0667 -0.09131,-0.0431 -0.172191,-0.105489 -0.237041,-0.182853 -0.06486,-0.07739 -0.112157,-0.167931 -0.13862,-0.265377 -0.02646,-0.09742 -0.03147,-0.1994427 -0.01467,-0.2990057 0.0064,-0.03834 0.01487,-0.07628 0.02535,-0.113691 0.02287,-0.08133 0.06052,-0.157771 0.111082,-0.225478 l 1.159696,-1.548871 c 0.05146,-0.06871 0.08332,-0.150098 0.09221,-0.235453 l 0.01593,-1.294553 c 5.55e-4,-0.04786 0.01998,-0.09358 0.05403,-0.127238 0.03405,-0.03365 0.08001,-0.05252 0.127873,-0.05252 h 0.0023 c 0.04823,6.09e-4 0.09424,0.02032 0.127926,0.05485 0.03368,0.03453 0.05228,0.08099 0.05173,0.129223 l -0.01593,1.302385 c 0,0.0047 0,0.0094 -6.88e-4,0.01421 -0.0141,0.154755 -0.07086,0.302524 -0.163935,0.426931 l -1.159828,1.548898 c -0.024,0.03186 -0.04194,0.06784 -0.05297,0.106177 -0.0068,0.02471 -0.01241,0.04977 -0.01672,0.07504 -0.01024,0.05853 -0.0046,0.118692 0.01648,0.174254 0.02104,0.05556 0.0566,0.1044307 0.103003,0.1414997 0.04495,0.03699 0.09898,0.0612 0.156501,0.07014 0.05749,0.0089 0.116337,0.0023 0.170391,-0.01931 l 0.0061,-0.0026 0.0044,-0.0017 c 0.05387,-0.02257 0.100674,-0.05921 0.135546,-0.106072 l 1.385385,-1.8466587 0.146764,-0.660453 c 0.0052,-0.02331 0.01492,-0.0454 0.02863,-0.06495 0.01371,-0.01958 0.03114,-0.03625 0.0513,-0.04905 0.02013,-0.01283 0.04262,-0.02156 0.06617,-0.02572 0.02352,-0.0041 0.04762,-0.0036 0.07096,0.0016 0.02331,0.0052 0.04538,0.0149 0.06496,0.02863 0.01955,0.0137 0.03622,0.03114 0.04905,0.05128 0.01283,0.02016 0.02156,0.04265 0.02569,0.06617 0.0042,0.02352 0.0036,0.04765 -0.0016,0.07096 l -0.155238,0.698717 c -0.0056,0.02524 -0.01651,0.04903 -0.03207,0.06969 l -1.409833,1.8782507 c -0.07429,0.09919 -0.173884,0.176583 -0.288343,0.224102 l -0.0035,0.0015 -0.01204,0.0049 c -0.08107,0.03209 -0.167402,0.04866 -0.254582,0.0489 z"
       fill="#ffffff"
       id="path9"
       style="stroke-width:0.264583" />
    <path
       d="m 4.3492404,6.3501133 c -0.02918,-8e-5 -0.05792,-0.0072 -0.08377,-0.02069 -0.02588,-0.01352 -0.0481,-0.03307 -0.06482,-0.05699 -0.01672,-0.02389 -0.02744,-0.05149 -0.03127,-0.08041 -0.0038,-0.02895 -6.35e-4,-0.05837 0.0093,-0.0858 l 0.896937,-2.4765271 c 0.05035,-0.141658 0.134647,-0.268843 0.245534,-0.37039 0.11086,-0.101547 0.244951,-0.17436 0.390498,-0.212063 0.228627,-0.0581 0.454792,-0.02445 0.671592,0.100277 0.150045,0.08755 0.277733,0.208703 0.373036,0.353933 l 0.765175,1.1536621 c 0.01376,0.02098 0.03254,0.03818 0.05461,0.05009 0.02207,0.01191 0.04675,0.01815 0.07183,0.01815 h 0.885905 c 0.198411,0 0.385207,0.101759 0.487521,0.265589 0.111442,0.178488 0.09596,0.380656 -0.04228,0.554726 -0.05411,0.06786 -0.122873,0.122555 -0.20119,0.159993 -0.07832,0.03741 -0.164094,0.05657 -0.250878,0.05601 h -1.456319 c -0.304483,0 -0.587587,-0.145758 -0.757211,-0.389863 -0.01058,-0.01511 -0.02117,-0.03138 -0.03127,-0.04821 -0.0363,-0.06017 -0.07239,-0.12028 -0.108241,-0.180314 -0.03942,-0.06593 -0.079,-0.131894 -0.118798,-0.197829 -0.07117,-0.118136 -0.12655,-0.208174 -0.179546,-0.291967 l -0.120385,-0.190791 c -0.01439,-0.02013 -0.02453,-0.04299 -0.02979,-0.0672 -0.0052,-0.02418 -0.0055,-0.04919 -7.67e-4,-0.07347 0.0048,-0.02432 0.01442,-0.04739 0.02839,-0.06781 0.01397,-0.02043 0.03199,-0.03778 0.05289,-0.05104 0.02093,-0.01323 0.04434,-0.02204 0.06879,-0.02593 0.02445,-0.0039 0.04942,-0.0027 0.07342,0.0034 0.02397,0.0061 0.04646,0.01704 0.06607,0.03217 0.01963,0.01511 0.03593,0.03405 0.04797,0.0557 l 0.121073,0.189971 c 0.05424,0.08596 0.110861,0.177932 0.18341,0.298106 0.04001,0.06617 0.07959,0.132688 0.119485,0.198966 0.03569,0.05982 0.07152,0.119592 0.107448,0.179309 0.006,0.0099 0.01228,0.01945 0.01842,0.02831 0.05194,0.07308 0.120756,0.132503 0.200607,0.173249 0.07988,0.04072 0.168407,0.06152 0.258048,0.06062 h 1.456214 c 0.03199,1.85e-4 0.06361,-0.0068 0.09255,-0.02045 0.02895,-0.01363 0.05445,-0.03355 0.07469,-0.05834 0.05345,-0.06718 0.03993,-0.101282 0.01842,-0.135731 -0.01947,-0.0295 -0.04606,-0.0536 -0.07731,-0.07011 -0.03127,-0.01648 -0.06617,-0.02484 -0.101521,-0.02426 h -0.885799 c -0.08514,1.32e-4 -0.168963,-0.02088 -0.243972,-0.06112 -0.07501,-0.04024 -0.138853,-0.09848 -0.185817,-0.169465 L 6.4530774,3.7023612 c -0.06422,-0.09819 -0.150284,-0.180128 -0.251513,-0.239448 -0.133932,-0.07697 -0.265139,-0.09755 -0.400765,-0.0631 -0.08797,0.02318 -0.168936,0.06755 -0.235796,0.129222 -0.06689,0.06167 -0.117634,0.138801 -0.147823,0.224605 l -0.896938,2.4765271 c -0.01273,0.03514 -0.03598,0.06551 -0.06657,0.08697 -0.03061,0.02146 -0.06707,0.03297 -0.104431,0.03299 z"
       fill="#ffffff"
       id="path11"
       style="stroke-width:0.264583" />
    <path
       d="m 6.6288374,10.495657 c -0.07101,-1.32e-4 -0.141499,-0.01206 -0.208624,-0.03527 -0.338931,-0.116416 -0.530278,-0.330279 -0.524827,-0.5865547 l 0.0068,-0.308901 v -0.841348 c -1.06e-4,-0.112951 -0.0404,-0.222171 -0.113691,-0.308134 l -1.692831,-1.992736 c -0.01548,-0.0182 -0.0272,-0.03929 -0.03453,-0.06204 -0.0073,-0.02273 -0.01011,-0.0467 -0.0082,-0.07051 0.0019,-0.02381 0.0085,-0.04702 0.01942,-0.06829 0.0109,-0.02127 0.02588,-0.04019 0.04411,-0.05564 0.0182,-0.01548 0.03926,-0.02722 0.06202,-0.03455 0.02275,-0.0073 0.0467,-0.01011 0.07054,-0.0082 0.02381,0.0019 0.04702,0.0085 0.06829,0.01945 0.02125,0.01087 0.04016,0.02588 0.05564,0.04408 l 1.69328,1.992736 c 0.128905,0.151845 0.199708,0.344541 0.199761,0.543693 v 0.847513 l -0.0069,0.310727 c -0.0027,0.1276867 0.213175,0.2119307 0.279348,0.2346577 0.05927,0.0217 0.124486,0.02064 0.183038,-0.003 0.153273,-0.06525 0.174758,-0.2671757 0.176821,-0.2918347 v -1.783615 c 1.06e-4,-0.119036 -0.04453,-0.233786 -0.125068,-0.321443 l -0.850001,-0.928079 c -0.125174,-0.136339 -0.211296,-0.303873 -0.249316,-0.485007 -0.038,-0.181108 -0.02651,-0.369147 0.03328,-0.544301 l 0.332687,-0.973561 c 0.01561,-0.04567 0.04871,-0.08324 0.09202,-0.104484 0.04331,-0.02125 0.09329,-0.02442 0.138959,-0.0088 0.04564,0.01558 0.08324,0.04868 0.104484,0.09202 0.02125,0.04331 0.02439,0.09329 0.0088,0.138932 l -0.332687,0.973588 c -0.03876,0.113268 -0.04628,0.23487 -0.02175,0.352054 0.02453,0.117158 0.0802,0.225557 0.161131,0.313743 l 0.850107,0.927656 c 0.142398,0.154728 0.22135,0.357399 0.221138,0.56769 v 1.789324 0.0081 c -0.0074,0.1677987 -0.09959,0.4858017 -0.397933,0.6128017 -0.0744,0.03162 -0.15449,0.04778 -0.235347,0.04754 z"
       fill="#ffffff"
       id="path13"
       style="stroke-width:0.264583" />
    <path
       d="m 4.0866154,6.5520963 c -0.0412,0 -0.08207,-0.0069 -0.120994,-0.02035 -0.03921,-0.01365 -0.07821,-0.02752 -0.117316,-0.04138 -0.08107,-0.02889 -0.164862,-0.05855 -0.24683,-0.08527 l -0.519483,-0.168831 c -0.02924,-0.0097 -0.059,-0.01773 -0.08914,-0.024 -0.201586,-0.04162 -0.337569,-0.123587 -0.403852,-0.243549 -0.02397,-0.04381 -0.03816,-0.09231 -0.04159,-0.142161 -0.0034,-0.04982 0.004,-0.0998 0.02169,-0.1465 l 0.0014,-0.0037 c 0.0058,-0.01545 0.01137,-0.03 0.01569,-0.04366 l 0.878634,-2.6678731 c 0.02445,-0.07435 0.04413,-0.15076 0.06493,-0.231712 l 0.0057,-0.02183 c 0.02302,-0.08803 0.07469,-0.16588 0.146897,-0.221252 0.05699,-0.04372 0.123296,-0.07374 0.193754,-0.08774 0.07046,-0.014 0.143193,-0.0116 0.212593,0.007 l 0.866246,0.22887 c 0.227383,0.04741 0.391001,0.155197 0.486516,0.320508 0.152109,0.263314 0.06038,0.559488 0.04934,0.59235 l -0.345201,-0.115041 v 0.0012 c 0.01513,-0.04786 0.04117,-0.194548 -0.01966,-0.298 -0.04218,-0.07162 -0.125862,-0.120623 -0.248655,-0.145653 -0.0034,-6.88e-4 -0.0068,-0.0015 -0.01011,-0.0024 l -0.871073,-0.22999 c -0.01511,-0.0044 -0.03106,-0.0053 -0.04657,-0.0026 -0.01553,0.0027 -0.03021,0.009 -0.04291,0.01833 -0.0091,0.0059 -0.01572,0.0149 -0.01865,0.02535 l -0.0056,0.02172 c -0.02138,0.0831 -0.04344,0.168936 -0.07175,0.254661 l -0.879316,2.6680061 c -0.0059,0.01818 -0.01217,0.035 -0.0182,0.05138 0.01365,0.01138 0.05379,0.03741 0.153273,0.058 0.04329,0.009 0.08602,0.02037 0.128032,0.03411 l 0.519456,0.169519 c 0.08676,0.02818 0.172932,0.05876 0.256276,0.08834 0.03836,0.01363 0.07675,0.0272 0.115173,0.04069 0.0078,0 0.05062,-0.02045 0.108823,-0.115279 0.01688,-0.02749 0.04077,-0.04998 0.06924,-0.06519 0.02844,-0.01519 0.06043,-0.02257 0.09266,-0.02133 0.01138,0 1.136968,0.03024 1.533314,-0.75393 0.01074,-0.02133 0.02561,-0.04032 0.04371,-0.05591 0.01812,-0.01558 0.03913,-0.02746 0.06181,-0.03493 0.0227,-0.0075 0.04665,-0.0104 0.07046,-0.0086 0.02384,0.0018 0.04707,0.0083 0.06839,0.01902 0.02133,0.01077 0.04035,0.02561 0.05593,0.04373 0.01558,0.0181 0.02744,0.03911 0.0349,0.06181 0.0075,0.02267 0.0104,0.04662 0.0086,0.07046 -0.0018,0.02381 -0.0083,0.04704 -0.019,0.06839 -0.21,0.415661 -0.602589,0.712523 -1.136968,0.858282 -0.206401,0.05556 -0.418518,0.08723 -0.632142,0.09438 -0.127688,0.16256 -0.259583,0.202592 -0.358484,0.202592 z"
       fill="#ffffff"
       id="path15"
       style="stroke-width:0.264583" />
    <path
       d="m 6.7627164,2.9863592 c -0.187404,-7.9e-5 -0.370575,-0.05575 -0.526362,-0.159914 -0.155786,-0.104191 -0.277177,-0.252225 -0.348826,-0.425395 -0.07165,-0.173169 -0.09036,-0.363699 -0.05374,-0.547494 0.03662,-0.183798 0.126894,-0.352613 0.25945,-0.485098 0.132556,-0.132487 0.301414,-0.222697 0.48522,-0.259225 0.183806,-0.03653 0.374332,-0.01774 0.547475,0.054 0.173117,0.07174 0.321099,0.193204 0.425212,0.349036 0.104114,0.155832 0.159676,0.339032 0.159676,0.526441 -3.17e-4,0.251312 -0.10033,0.492229 -0.278077,0.669891 -0.177747,0.177665 -0.418729,0.277545 -0.670031,0.277757 z m 0,-1.531477 c -0.115437,9e-5 -0.228282,0.03441 -0.32422,0.09861 -0.09596,0.06421 -0.170736,0.155419 -0.214842,0.262107 -0.04411,0.106691 -0.05562,0.224065 -0.03305,0.337286 0.02259,0.113223 0.07824,0.217207 0.159888,0.298812 0.08168,0.08161 0.185711,0.137163 0.298952,0.159655 0.113242,0.02249 0.230585,0.0109 0.337238,-0.0333 0.10668,-0.0442 0.197829,-0.119034 0.261964,-0.215035 0.06414,-0.096 0.09835,-0.20886 0.09835,-0.324311 -2.12e-4,-0.154855 -0.06183,-0.303299 -0.171397,-0.412758 -0.109538,-0.109455 -0.258022,-0.170979 -0.412883,-0.171071 z"
       fill="#ffffff"
       id="path17"
       style="stroke-width:0.264583" />
    <path
       d="m 8.5249214,10.550611 c -0.04823,0 -0.09451,-0.01918 -0.128641,-0.05329 -0.0341,-0.03413 -0.05326,-0.08038 -0.05326,-0.12864 V 5.5774203 c 0,-0.04826 0.01916,-0.09451 0.05326,-0.12864 0.03413,-0.03411 0.08041,-0.05329 0.128641,-0.05329 0.04826,0 0.09451,0.01918 0.12864,0.05329 0.0341,0.03413 0.05329,0.08038 0.05329,0.12864 v 4.7912607 c 0,0.04826 -0.01918,0.09451 -0.05329,0.12864 -0.03413,0.0341 -0.08038,0.05329 -0.12864,0.05329 z"
       fill="#ffffff"
       id="path19"
       style="stroke-width:0.264583" />
    <path
       d="m 8.5249214,5.0865683 c -0.04823,0 -0.09451,-0.01918 -0.128641,-0.05329 -0.0341,-0.0341 -0.05326,-0.08038 -0.05326,-0.12864 v -0.995389 c 0,-0.04826 0.01916,-0.09454 0.05326,-0.1286401 0.03413,-0.03411 0.08041,-0.05329 0.128641,-0.05329 0.04826,0 0.09451,0.01918 0.12864,0.05329 0.0341,0.0341 0.05329,0.08038 0.05329,0.1286401 v 0.995389 c 0,0.04826 -0.01918,0.09454 -0.05329,0.12864 -0.03413,0.0341 -0.08038,0.05329 -0.12864,0.05329 z"
       fill="#ffffff"
       id="path21"
       style="stroke-width:0.264583" />
    <path
       d="m 5.1317194,4.1898963 c -0.01701,-2.7e-5 -0.03392,-0.0024 -0.05027,-0.0071 L 3.4194414,3.7061052 c -0.02307,-0.0065 -0.04463,-0.01746 -0.06347,-0.03231 -0.01881,-0.01484 -0.0345,-0.03326 -0.0462,-0.05421 -0.01167,-0.02093 -0.0191,-0.04397 -0.02186,-0.06779 -0.0027,-0.02381 -7.41e-4,-0.04792 0.0058,-0.07096 0.0066,-0.02305 0.01773,-0.04456 0.03268,-0.06331 0.01495,-0.01873 0.03344,-0.03434 0.05445,-0.0459 0.02098,-0.01156 0.04405,-0.01887 0.06789,-0.02148 0.02384,-0.0026 0.04794,-4.77e-4 0.07093,0.0062 l 1.662007,0.4767261 c 0.04218,0.01209 0.07853,0.039 0.10242,0.07578 0.02389,0.03675 0.03368,0.08094 0.0276,0.124354 -0.0061,0.04342 -0.02765,0.08319 -0.06075,0.111971 -0.03307,0.02879 -0.07543,0.04464 -0.119274,0.04469 z"
       fill="#ffffff"
       id="path23"
       style="stroke-width:0.264583" />
  </g>
</svg>
