<svg width="132" height="28" viewBox="0 0 132 28" fill="none" xmlns="http://www.w3.org/2000/svg">
<g id="Group 25">
<g id="SatC">
<path d="M11.8142 6.2292C11.7117 5.42406 11.4656 4.72487 11.0758 4.13161C10.2759 2.86035 8.95298 2.22471 7.107 2.22471C5.56869 2.22471 4.45085 2.58491 3.75348 3.30529C3.11765 3.9833 2.79973 4.90496 2.79973 6.07029C2.79973 7.36274 3.14841 8.25263 3.84578 8.73995C4.54315 9.22727 5.51741 9.52389 6.76857 9.62983C7.9582 9.73577 8.96323 9.90527 9.78366 10.1383C10.6041 10.3502 11.2912 10.6468 11.845 11.0282C13.3013 11.9605 14.0294 13.4224 14.0294 15.4141C14.0294 16.198 13.8756 16.9396 13.5679 17.6388C13.2808 18.338 12.8603 18.963 12.3065 19.5139C11.0553 20.7852 9.34268 21.4208 7.16853 21.4208C4.97388 21.4208 3.24071 20.7958 1.96904 19.5457C0.881966 18.5075 0.225619 17.1091 0 15.3505H2.12287C2.30747 16.4099 2.7382 17.2786 3.41505 17.9566C4.29702 18.8041 5.55843 19.2279 7.1993 19.2279C8.59404 19.2279 9.72213 18.8783 10.5836 18.1791C11.4656 17.4587 11.9065 16.537 11.9065 15.4141C11.9065 14.6937 11.763 14.1004 11.4758 13.6343C11.2092 13.147 10.6861 12.755 9.90673 12.4584C9.12732 12.1618 8.01973 11.9499 6.58398 11.8228C2.6459 11.4626 0.676857 9.54508 0.676857 6.07029C0.676857 5.20159 0.810178 4.40705 1.07682 3.68667C1.36397 2.9451 1.76393 2.30947 2.2767 1.77977C3.4048 0.614445 5.00464 0.0317813 7.07623 0.0317813H7.107C9.21962 0.05297 10.8297 0.656821 11.9373 1.84334C13.0654 3.00866 13.732 4.48121 13.9371 6.26098H11.8142V6.2292Z" fill="white"/>
<path d="M31.4308 5.75247V21.2301H29.308V18.3062C27.8927 20.3614 26.0057 21.389 23.647 21.389C22.2317 21.389 20.9293 21.0394 19.7397 20.3402C18.55 19.6199 17.6065 18.6452 16.9092 17.4163C16.2323 16.1874 15.8939 14.8526 15.8939 13.4118C15.8939 11.9499 16.2323 10.6045 16.9092 9.37558C17.6065 8.14669 18.55 7.18265 19.7397 6.48345C20.9293 5.76307 22.2317 5.40288 23.647 5.40288C25.1032 5.40288 26.2929 5.72069 27.2159 6.35633C28.1594 6.97077 28.8567 7.63819 29.308 8.35857V5.75247H31.4308ZM23.647 19.2279C24.6725 19.2279 25.616 18.9736 26.4775 18.4651C27.3389 17.9354 28.0158 17.2256 28.508 16.3358C29.0208 15.4459 29.2772 14.4712 29.2772 13.4118C29.2772 12.3525 29.0208 11.3778 28.508 10.4879C28.0158 9.57686 27.3389 8.86707 26.4775 8.35857C25.616 7.82887 24.6725 7.56403 23.647 7.56403C22.6214 7.56403 21.6677 7.82887 20.7857 8.35857C19.9243 8.86707 19.2372 9.57686 18.7244 10.4879C18.2321 11.3778 17.986 12.3525 17.986 13.4118C17.986 14.4712 18.2321 15.4459 18.7244 16.3358C19.2372 17.2256 19.9243 17.9354 20.7857 18.4651C21.6677 18.9736 22.6214 19.2279 23.647 19.2279Z" fill="white"/>
<path d="M41.4215 7.50046H38.8679V21.2301H36.745V7.50046H34.1914V5.33931H36.745V0.0953453H38.8679V5.33931H41.4215V7.50046Z" fill="white"/>
<path d="M54.2334 21.4208C52.3464 21.4208 50.6133 20.9441 49.0339 19.9906C47.4546 19.0372 46.2034 17.7447 45.2805 16.1133C44.3575 14.4818 43.896 12.6915 43.896 10.7422C43.896 8.79292 44.3575 7.00255 45.2805 5.3711C46.2034 3.71845 47.4546 2.4154 49.0339 1.46196C50.6338 0.487319 52.3669 0 54.2334 0C55.7512 0 57.1973 0.32841 58.5715 0.985231C59.9457 1.62086 61.1148 2.54253 62.0788 3.75023L60.479 5.14862C59.6996 4.21636 58.7561 3.49598 57.6485 2.98747C56.5614 2.45778 55.4231 2.19293 54.2334 2.19293C52.7567 2.19293 51.3824 2.58491 50.1108 3.36885C48.8596 4.13161 47.8648 5.16981 47.1264 6.48345C46.388 7.79709 46.0188 9.21667 46.0188 10.7422C46.0188 12.2677 46.388 13.6873 47.1264 15.0009C47.8648 16.2934 48.8596 17.321 50.1108 18.0837C51.3824 18.8465 52.7567 19.2279 54.2334 19.2279C55.4231 19.2279 56.5614 18.9736 57.6485 18.4651C58.7561 17.9354 59.6996 17.2045 60.479 16.2722L62.0788 17.6706C61.1148 18.8571 59.9457 19.7788 58.5715 20.4356C57.1973 21.0924 55.7512 21.4208 54.2334 21.4208Z" fill="white"/>
</g>
<g id="mp">
<path d="M107.767 5.33993C108.793 5.33993 109.736 5.60478 110.598 6.13447C111.459 6.64298 112.136 7.35277 112.628 8.26384C113.141 9.15373 113.397 10.1284 113.397 11.1878V21.2307H111.305V11.1878C111.305 10.1707 110.957 9.31263 110.259 8.61344C109.562 7.89305 108.731 7.53286 107.767 7.53286C106.783 7.53286 105.942 7.89305 105.244 8.61344C104.567 9.31263 104.229 10.1601 104.229 11.156V11.1878V21.2307H102.106V11.156C102.106 10.1601 101.757 9.31263 101.06 8.61344C100.363 7.89305 99.532 7.53286 98.568 7.53286C97.604 7.53286 96.7733 7.90365 96.0759 8.64522C95.3785 9.3656 95.0298 10.2343 95.0298 11.2513V21.2307H92.9377V5.75309H95.0298V6.99258C95.4401 6.48407 95.9631 6.0815 96.5989 5.78487C97.2553 5.48825 97.9116 5.33993 98.568 5.33993C99.491 5.33993 100.352 5.5624 101.152 6.00735C101.973 6.45229 102.639 7.04554 103.152 7.78712C103.685 7.04554 104.352 6.45229 105.152 6.00735C105.972 5.5624 106.844 5.33993 107.767 5.33993Z" fill="white"/>
<path d="M116.463 28.0002V5.75309H118.555V8.39097C119.273 7.35277 120.114 6.57941 121.078 6.07091C122.042 5.54121 123.098 5.27637 124.247 5.27637C125.642 5.27637 126.934 5.63656 128.124 6.35694C129.313 7.07733 130.257 8.05196 130.954 9.28085C131.651 10.5097 132 11.8446 132 13.2853C132 14.7261 131.651 16.0609 130.954 17.2898C130.257 18.5187 129.313 19.4934 128.124 20.2137C126.934 20.9341 125.642 21.2943 124.247 21.2943C122.791 21.2943 121.591 20.9871 120.647 20.3726C119.704 19.737 119.006 19.059 118.555 18.3386V28.0002H116.463ZM124.247 7.4693C123.221 7.4693 122.278 7.73415 121.416 8.26384C120.555 8.77235 119.868 9.47154 119.355 10.3614C118.842 11.2513 118.586 12.226 118.586 13.2853C118.586 14.3447 118.842 15.3194 119.355 16.2092C119.868 17.0991 120.555 17.8089 121.416 18.3386C122.278 18.8683 123.221 19.1332 124.247 19.1332C125.273 19.1332 126.216 18.8683 127.077 18.3386C127.939 17.8089 128.616 17.0991 129.108 16.2092C129.621 15.3194 129.877 14.3447 129.877 13.2853C129.877 12.226 129.621 11.2513 129.108 10.3614C128.616 9.47154 127.939 8.77235 127.077 8.26384C126.216 7.73415 125.273 7.4693 124.247 7.4693Z" fill="white"/>
</g>
<g id="Group">
<path id="Vector" fill-rule="evenodd" clip-rule="evenodd" d="M69.6533 21.2304L71.8502 17.4362L66.6658 21.2304H69.6533ZM77.6022 21.2304C78.6008 20.3866 78.1477 19.8297 77.6022 19.0576C76.9433 18.1267 76.1466 16.8835 77.6022 14.4436L70.3281 21.2304H77.6022ZM73.4486 16.8146L77.6034 12.1808L81.6917 16.1213L84.2211 14.4534L90.4139 21.229L84.008 11.0502L78.4284 2.1843C78.0398 1.56679 77.1646 1.56683 76.776 2.18438L71.1975 11.0502L64.7928 21.229L71.8514 15.2452L73.4486 16.8146ZM84.1189 16.7429L78.3361 21.2304H84.375C84.2888 19.7341 86.3761 18.9311 84.1189 16.7429Z" fill="white"/>
</g>
</g>
</svg>
