<?xml version="1.0" encoding="UTF-8" standalone="no"?>
<!-- Created with Inkscape (http://www.inkscape.org/) -->

<svg
   width="44"
   height="44"
   viewBox="0 0 11.641666 11.641666"
   version="1.1"
   id="svg168"
   xmlns="http://www.w3.org/2000/svg"
   xmlns:svg="http://www.w3.org/2000/svg">
  <defs
     id="defs165">
    <clipPath
       id="clip0_95_809">
      <rect
         width="44"
         height="44"
         fill="#ffffff"
         transform="translate(82)"
         id="rect60"
         x="0"
         y="0" />
    </clipPath>
    <mask
       id="mask0_95_809"
       maskUnits="userSpaceOnUse"
       x="164"
       y="0"
       width="44"
       height="44">
      <path
         d="m 164,3.8147e-6 h 44 V 44 h -44 z"
         fill="#ffffff"
         id="path29" />
    </mask>
    <mask
       id="mask0_95_809-3"
       maskUnits="userSpaceOnUse"
       x="164"
       y="0"
       width="44"
       height="44">
      <path
         d="m 164,3.8147e-6 h 44 V 44 h -44 z"
         fill="#ffffff"
         id="path29-9" />
    </mask>
  </defs>
  <g
     id="layer1">
    <path
       d="m 6.5079562,9.8580111 c -0.3778249,0 -0.6871229,-0.3092185 -0.6871229,-0.6871494 V 7.7363968 L 4.8651584,6.7828649 C 4.7064084,6.6240091 4.6183021,6.4113634 4.6183021,6.1858855 c 0,-0.2233348 0.090223,-0.4402137 0.2468563,-0.5991225 L 6.0915021,4.3605781 H 5.4665563 L 4.9553813,4.8716737 C 4.8416104,4.9854974 4.6913271,5.0477803 4.5301958,5.0477803 c -0.3307291,0 -0.6011333,-0.2705893 -0.6011333,-0.6013185 0,-0.1610519 0.062177,-0.3113617 0.1759479,-0.4251854 L 4.7921334,3.3340742 C 4.9059042,3.2202769 5.0564521,3.1579939 5.2173188,3.1579939 h 1.9348979 c 0.1804458,0 0.358775,0.073025 0.4852458,0.2018771 l 0.5561541,0.5561541 c 0.1288521,0.1288521 0.2018771,0.3049588 0.2018771,0.4853782 v 1.1617589 h 0.7731125 c 0.3307292,0 0.6013979,0.2705365 0.6013979,0.6012656 0,0.3307292 -0.2706687,0.6012656 -0.6013979,0.6012656 H 7.88035 c -0.3780896,0 -0.6873875,-0.3092185 -0.6873875,-0.6871493 V 5.6340176 L 6.4285812,6.4006743 6.9934667,6.9654539 c 0.128852,0.1288256 0.2016125,0.3027891 0.2016125,0.4852987 v 1.717966 c 0,0.380074 -0.3090334,0.6892925 -0.687123,0.6892925 z M 5.3268563,4.0170166 h 1.595702 l -1.814777,1.8145389 c -0.094456,0.094509 -0.1457854,0.2233348 -0.1457854,0.3564732 0,0.1310481 0.053446,0.2599002 0.1457854,0.35433 l 1.0543645,1.0544174 v 1.5740856 c 0,0.188939 0.1547813,0.343588 0.3436938,0.343588 0.1889125,0 0.3436937,-0.154649 0.3436937,-0.343588 v -1.717966 c 0,-0.092366 -0.036513,-0.1782233 -0.1010708,-0.2426493 L 5.9433354,6.4006743 7.5387729,4.805131 v 1.2734131 c 0,0.1889389 0.1545167,0.3435879 0.3436937,0.3435879 h 1.2882563 c 0.1418166,0 0.2577041,-0.1159669 0.2577041,-0.2577042 0,-0.1417373 -0.1158875,-0.2576777 -0.2577041,-0.2576777 H 8.0541812 V 4.4014033 c 0,-0.090223 -0.036512,-0.1783027 -0.1010708,-0.2427023 L 7.3969562,3.6025469 C 7.3326625,3.5381208 7.2445562,3.5016348 7.1543333,3.5016348 H 5.2194354 c -0.068527,0 -0.1330854,0.027861 -0.1825625,0.075115 L 4.34975,4.2639522 c -0.049213,0.049371 -0.075142,0.1137973 -0.075142,0.1825096 0,0.1417373 0.1158875,0.2576777 0.2577042,0.2576777 0.068792,0 0.1330854,-0.027861 0.1825625,-0.075115 z"
       fill="#ffffff"
       id="path48"
       style="stroke-width:0.264583" />
    <path
       d="m 3.9311792,8.4836595 c -0.1825625,0 -0.3566583,-0.070829 -0.4855104,-0.2018771 L 2.4151167,7.2509922 C 2.2862646,7.1221666 2.2132396,6.9482559 2.2132396,6.7656934 c 0,-0.3779308 0.3090334,-0.6871493 0.6871229,-0.6871493 0.1825625,0 0.3563938,0.070855 0.4852459,0.2018241 l 0.3844395,0.3844132 c 0.0889,0.088953 0.2330979,0.088953 0.3219979,0 l 0.039952,-0.03974 c 0.06694,-0.066993 0.1754188,-0.066993 0.242623,0 0.06694,0.067019 0.06694,0.1756569 0,0.2426494 L 4.1182396,7.1240451 c -0.1034521,0.1033463 -0.2709333,0.1033463 -0.3741208,0 L 3.1429854,6.5230176 c -0.064558,-0.0644 -0.1502833,-0.1009121 -0.2426229,-0.1009121 -0.1889125,0 -0.3436937,0.154649 -0.3436937,0.3435879 0,0.09234 0.036512,0.1782234 0.1010708,0.2426494 l 1.0308167,1.0307637 c 0.1309687,0.1310482 0.3563937,0.1310482 0.4852458,0 L 4.8254709,7.3873584 c 0.06694,-0.066993 0.1756833,-0.066993 0.2426229,0 0.066939,0.067019 0.066939,0.1756569 0,0.2426759 L 4.416425,8.2817824 C 4.2875729,8.4128305 4.1134771,8.4836595 3.9311792,8.4836595 Z"
       fill="#ffffff"
       id="path50"
       style="stroke-width:0.264583" />
    <path
       d="m 8.9132833,3.8451962 c -0.5691187,0 -1.0308167,-0.4617243 -1.0308167,-1.0307637 0,-0.5690552 0.461698,-1.030777 1.0308167,-1.030777 0.5688542,0 1.0305521,0.4617218 1.0305521,1.030777 0,0.5690394 -0.4616979,1.0307637 -1.0305521,1.0307637 z m 0,-1.7179713 c -0.3780896,0 -0.6873875,0.3092821 -0.6873875,0.6872076 0,0.3779044 0.3092979,0.6872023 0.6873875,0.6872023 0.377825,0 0.6871229,-0.3092979 0.6871229,-0.6872023 0,-0.3779255 -0.3092979,-0.6872076 -0.6871229,-0.6872076 z"
       fill="#ffffff"
       id="path52"
       style="stroke-width:0.264583" />
    <path
       d="m 1.6978313,4.5323456 c 0,-0.09488 0.076729,-0.171794 0.1717146,-0.171794 h 1.2025312 c 0.094985,0 0.1717146,0.076914 0.1717146,0.171794 0,0.09488 -0.076729,0.1717939 -0.1717146,0.1717939 H 1.8695459 c -0.094985,0 -0.1717146,-0.076914 -0.1717146,-0.1717939 z"
       fill="#ffffff"
       id="path54"
       style="stroke-width:0.264583" />
    <path
       d="m 2.2132396,3.3298144 c 0,-0.094906 0.076729,-0.1718205 0.1717146,-0.1718205 H 3.7592 c 0.094985,0 0.1719792,0.076914 0.1719792,0.1718205 0,0.09488 -0.076994,0.1718204 -0.1719792,0.1718204 H 2.3849542 c -0.094985,0 -0.1717146,-0.076941 -0.1717146,-0.1718204 z"
       fill="#ffffff"
       id="path56"
       style="stroke-width:0.264583" />
  </g>
</svg>
